<svg xmlns="http://www.w3.org/2000/svg" viewBox="28.369990234374995 130.68000030517578 518.260009765625 280.9799995422363"><rect height="100%" width="100%" x="28.369990234374995" y="130.68000030517578" fill="#ffffff"/> <svg xmlns="http://www.w3.org/2000/svg" xmlns:xlink="http://www.w3.org/1999/xlink" version="1.1" id="tttt_1" x="248" y="200.68000030517578" viewBox="1906.300048828125 906.2999877929688 1187.39990234375 1187.39990234375" xml:space="preserve" height="79" width="79" preserveAspectRatio="xMinYMin" enable-background="new 0 0 5000 3000" style="overflow: visible;"><path d="M2500,906.3c-327.3,0-593.7,266.3-593.7,593.7s266.3,593.7,593.7,593.7s593.7-266.3,593.7-593.7S2827.3,906.3,2500,906.3z   M2420.9,953.5c25.8-3.7,52.2-5.7,79.1-5.7c184.9,0,348.7,91.4,449,231.3l-365,119.5c-12.7-27.3-30.9-51.6-53.1-71.5l89.3-123.6  c4.5-6.2,3.1-14.8-3.1-19.3c-6.2-4.5-14.8-3.1-19.3,3.1l-88.6,122.5c-31.9-22.1-69.8-36-110.8-38.8L2420.9,953.5z M2577.1,1391.7  c0,3-0.2,6.1-0.3,9.1l-128.2-49.7l-202.8,177c-35.8-36.2-56.3-85.1-56.3-136.3c0-106.9,87-193.8,193.8-193.8  C2490.2,1197.9,2577.1,1284.8,2577.1,1391.7z M2392.7,958.3l-21.9,212.6c-35.1,2-68.1,12.1-97,28.6l-49.8-83.5  c-3.9-6.6-12.4-8.7-18.9-4.8c-6.6,3.9-8.7,12.4-4.8,18.9l50.5,84.6c-34.5,25.9-61.2,61.6-75.9,103l-177-47  C2070.7,1111.8,2216.7,993.1,2392.7,958.3z M1947.8,1500c0-71.9,14-140.6,39.1-203.6l180.3,47.9c-3.4,15.3-5.3,31.2-5.3,47.5  c0,16.1,1.8,32,5.2,47.5l-130.8,32.4c-7.4,1.8-11.9,9.3-10.1,16.7c1.6,6.3,7.2,10.5,13.4,10.5c1.1,0,2.2-0.1,3.3-0.4l132-32.7  c10.6,30,27.7,57.5,50.2,80.5l-72.1,62.9c-3.1-2.3-6.2-4.7-9.3-7c-19.1-14.1-39.8-28.4-64.2-35.9c-27.6-8.5-54.3-5.7-77.4,8  c-16.3,9.7-30.4,25-41.4,43.7C1952.3,1579.9,1947.8,1540.5,1947.8,1500z M1971.7,1660.7c8.8-28.2,24.7-51.1,44.4-62.8  c16.4-9.8,34.9-11.5,55.2-5.3c20.3,6.2,38.8,19.1,56,31.8c36.6,26.9,72.4,56.4,107,84.9c37.9,31.2,77.1,63.5,117.8,92.8  c19.5,14,42.7,30.8,68.5,47.1c-35.7-10.1-71.2-21-106.4-31.9l-10.3-3.2c-51.7-15.9-95.1-12.7-128.9,9.5  c-31.1,20.5-46.9,52.6-54.8,76.7C2051.7,1835.3,1999.8,1753.1,1971.7,1660.7z M2500,2052.2c-136.1,0-260.7-49.6-357.1-131.5  c4.9-19.8,17.3-54.5,47.2-74.2c26.6-17.5,62.1-19.6,105.6-6.2l10.3,3.2c76.1,23.5,153.6,47.3,232.3,62.5  c24.5,7.5,49.6,12.1,74.8,12.1c1.2,0,2.4-0.1,3.6-0.2c45.6,4.8,91.5,5.9,137.8,1.3c56.6-5.6,117.1-29.7,168.6-64.7  C2821.6,1975.3,2669.6,2052.2,2500,2052.2z M2751.7,1891.8c-16.2,1.6-32.4,2.4-48.6,2.6c49.9-27.2,98.2-76.3,99.4-131.4  c0.6-27-10.6-53.1-30.1-69.8c-25-21.5-66.3-30.5-102.8-22.5c-29.8,6.6-52.3,23.4-63.3,47.4c-11.1,24.2-7.9,51.4,8.6,74.5  c16.4,23,43,36.9,69.4,37.1c1.5,0.2,3,0.5,4.5,0.5c19.7,0,35.7-16,35.7-35.7c0-19.7-16-35.7-35.7-35.7c-18.9,0-34.2,14.8-35.4,33.4  c-6.1-4.1-11.6-9.4-16-15.6c-10.6-14.9-12.8-32-5.9-46.9c9.8-21.5,31.8-29.2,44.1-31.9c28-6.1,60.4,0.6,78.9,16.4  c13,11.2,20.9,29.7,20.5,48.2c-1.3,56.3-73,114.6-131.4,125.4c-8.7,1.6-17.6,2.2-26.4,2.4c-23.9-2.6-47.7-6.4-71.5-10.9  c-68.1-21.1-132.9-67.6-177.4-99.7c-40-28.8-78.8-60.8-116.4-91.7c-24.9-20.5-50.4-41.4-76.5-61.7l276.5-241.3l508.9,402.7  C2901.1,1848.4,2814.9,1885.5,2751.7,1891.8z M3022.3,1679c-8,23.2-17.4,45.7-28.3,67.4c-2.3,3.5-4.4,7-7,10.4  c-2.5,3.5-5.3,6.8-8,10.2l-447.4-354l295.7,114.7c-0.2,0.5-0.5,1-0.8,1.5c-9.1,22.7-4.9,45.6,11.9,64.5c14.2,16,37,23.6,58.2,19.6  c17.1-3.3,30.6-13.6,37.8-28.5c4.4-5.9,7-13.2,7-21.1c0-19.7-16-35.7-35.7-35.7c-19.7,0-35.7,16-35.7,35.7c0,8.4,3,16,7.8,22  c-7.2-1.5-13.9-5-18.8-10.4c-9.8-11-12.1-23.1-7-35.9c8.1-20.3,33.6-38.5,56.6-40.4c56.3-4.8,102.1,64.9,113.2,117  C3026.6,1636.8,3026.5,1657.9,3022.3,1679z M2906.6,1471.5c-23.5,2-47.2,14.8-63.5,32.6l-239.3-92.8c0.6-6.5,1-13,1-19.6  c0-23.5-3.8-46.1-10.6-67.4l370.9-121.5c55.1,85.9,87.1,187.8,87.1,297.2c0,31.5-2.8,62.4-7.9,92.5  C3025.9,1535,2975.3,1465.7,2906.6,1471.5z" style="fill: #CD8E33; fill-opacity: 1;"></path></svg> <svg y="332.1599998474121" viewBox="1.0700000524520874 2.690000057220459 121.43000030517578 9.5" x="226.7850047302246" height="9.5" width="121.43000030517578" style="overflow: visible;"><g fill="#545454" fill-opacity="1" style=""><path d="M4.47 8.44L2.29 8.44L2.29 12.06L1.07 12.06L1.07 2.82L4.48 2.82Q6.00 2.82 6.86 3.59Q7.72 4.37 7.72 5.64L7.72 5.64Q7.72 6.99 6.88 7.72Q6.04 8.44 4.47 8.44L4.47 8.44ZM2.29 3.82L2.29 7.45L4.48 7.45Q5.46 7.45 5.98 6.99Q6.50 6.53 6.50 5.66L6.50 5.66Q6.50 4.83 5.98 4.34Q5.46 3.84 4.55 3.82L4.55 3.82L2.29 3.82ZM19.38 2.82L19.38 12.06L18.15 12.06L18.15 7.79L13.49 7.79L13.49 12.06L12.27 12.06L12.27 2.82L13.49 2.82L13.49 6.79L18.15 6.79L18.15 2.82L19.38 2.82ZM31.65 7.15L31.65 7.74Q31.65 9.10 31.19 10.11Q30.74 11.12 29.90 11.65Q29.06 12.19 27.94 12.19L27.94 12.19Q26.85 12.19 26.01 11.65Q25.16 11.11 24.70 10.12Q24.23 9.13 24.22 7.82L24.22 7.82L24.22 7.15Q24.22 5.82 24.68 4.80Q25.14 3.78 25.99 3.23Q26.84 2.69 27.93 2.69L27.93 2.69Q29.04 2.69 29.89 3.23Q30.74 3.76 31.19 4.78Q31.65 5.80 31.65 7.15L31.65 7.15ZM30.44 7.83L30.44 7.14Q30.44 5.50 29.78 4.62Q29.12 3.74 27.93 3.74L27.93 3.74Q26.78 3.74 26.11 4.62Q25.45 5.50 25.43 7.06L25.43 7.06L25.43 7.74Q25.43 9.33 26.10 10.24Q26.77 11.15 27.94 11.15L27.94 11.15Q29.12 11.15 29.77 10.29Q30.42 9.43 30.44 7.83L30.44 7.83ZM42.69 2.82L42.69 3.82L39.72 3.82L39.72 12.06L38.51 12.06L38.51 3.82L35.55 3.82L35.55 2.82L42.69 2.82ZM54.00 7.15L54.00 7.74Q54.00 9.10 53.54 10.11Q53.08 11.12 52.24 11.65Q51.41 12.19 50.29 12.19L50.29 12.19Q49.20 12.19 48.35 11.65Q47.51 11.11 47.04 10.12Q46.58 9.13 46.56 7.82L46.56 7.82L46.56 7.15Q46.56 5.82 47.03 4.80Q47.49 3.78 48.34 3.23Q49.18 2.69 50.28 2.69L50.28 2.69Q51.39 2.69 52.23 3.23Q53.08 3.76 53.54 4.78Q54.00 5.80 54.00 7.15L54.00 7.15ZM52.78 7.83L52.78 7.14Q52.78 5.50 52.12 4.62Q51.46 3.74 50.28 3.74L50.28 3.74Q49.12 3.74 48.46 4.62Q47.79 5.50 47.78 7.06L47.78 7.06L47.78 7.74Q47.78 9.33 48.45 10.24Q49.11 11.15 50.29 11.15L50.29 11.15Q51.47 11.15 52.12 10.29Q52.76 9.43 52.78 7.83L52.78 7.83ZM65.65 7.46L65.65 10.85Q65.18 11.52 64.34 11.85Q63.50 12.19 62.38 12.19L62.38 12.19Q61.25 12.19 60.37 11.66Q59.50 11.13 59.02 10.15Q58.54 9.17 58.53 7.88L58.53 7.88L58.53 7.08Q58.53 4.99 59.50 3.84Q60.47 2.69 62.24 2.69L62.24 2.69Q63.69 2.69 64.57 3.43Q65.45 4.17 65.65 5.53L65.65 5.53L64.43 5.53Q64.09 3.69 62.25 3.69L62.25 3.69Q61.02 3.69 60.39 4.55Q59.76 5.41 59.75 7.05L59.75 7.05L59.75 7.80Q59.75 9.36 60.46 10.27Q61.17 11.19 62.39 11.19L62.39 11.19Q63.07 11.19 63.58 11.04Q64.10 10.89 64.44 10.52L64.44 10.52L64.44 8.45L62.30 8.45L62.30 7.46L65.65 7.46ZM76.07 12.06L74.07 8.32L71.90 8.32L71.90 12.06L70.67 12.06L70.67 2.82L73.73 2.82Q75.29 2.82 76.14 3.53Q76.98 4.24 76.98 5.60L76.98 5.60Q76.98 6.46 76.51 7.10Q76.04 7.74 75.21 8.06L75.21 8.06L77.38 11.98L77.38 12.06L76.07 12.06ZM71.90 3.82L71.90 7.33L73.77 7.33Q74.68 7.33 75.21 6.86Q75.75 6.39 75.75 5.60L75.75 5.60Q75.75 4.74 75.24 4.28Q74.73 3.83 73.76 3.82L73.76 3.82L71.90 3.82ZM87.67 12.06L86.79 9.65L82.92 9.65L82.05 12.06L80.79 12.06L84.32 2.82L85.38 2.82L88.92 12.06L87.67 12.06ZM84.85 4.32L83.28 8.65L86.43 8.65L84.85 4.32ZM96.56 8.44L94.38 8.44L94.38 12.06L93.16 12.06L93.16 2.82L96.57 2.82Q98.09 2.82 98.95 3.59Q99.81 4.37 99.81 5.64L99.81 5.64Q99.81 6.99 98.97 7.72Q98.13 8.44 96.56 8.44L96.56 8.44ZM94.38 3.82L94.38 7.45L96.57 7.45Q97.55 7.45 98.07 6.99Q98.59 6.53 98.59 5.66L98.59 5.66Q98.59 4.83 98.07 4.34Q97.55 3.84 96.64 3.82L96.64 3.82L94.38 3.82ZM111.47 2.82L111.47 12.06L110.24 12.06L110.24 7.79L105.58 7.79L105.58 12.06L104.37 12.06L104.37 2.82L105.58 2.82L105.58 6.79L110.24 6.79L110.24 2.82L111.47 2.82ZM121.86 6.79L121.86 7.79L117.85 7.79L117.85 11.06L122.50 11.06L122.50 12.06L116.63 12.06L116.63 2.82L122.44 2.82L122.44 3.82L117.85 3.82L117.85 6.79L121.86 6.79Z" transform="translate(0, 0)"></path></g></svg> <svg y="290.8400001525879" viewBox="-0.1899999976158142 6.079999923706055 378.260009765625 25.280000686645508" x="98.369990234375" height="25.280000686645508" width="378.260009765625" style="overflow: visible;"><g fill="#545454" fill-opacity="1" style=""><path d="M16.93 25.57L15.62 22.11L7.07 22.11Q6.53 23.42 6.14 24.43Q5.76 25.44 5.52 26.18Q5.28 26.91 5.18 27.42Q5.09 27.94 5.09 28.26L5.09 28.26Q5.09 29.15 5.66 29.49Q6.24 29.82 7.58 29.82L7.58 29.82L7.58 31.04L-0.19 31.04L-0.19 29.82Q0.54 29.73 1.07 29.57Q1.60 29.41 2 29.12Q2.40 28.83 2.70 28.37Q3.01 27.90 3.30 27.23L3.30 27.23L11.62 6.40L12.99 6.40L20.26 24.45Q20.99 26.24 21.54 27.31Q22.08 28.38 22.59 28.93Q23.10 29.47 23.70 29.63Q24.29 29.79 25.12 29.79L25.12 29.79L25.12 31.04L14.69 31.04L14.69 29.79Q16.38 29.79 17.02 29.47Q17.66 29.15 17.66 28.42L17.66 28.42Q17.66 28.10 17.63 27.82Q17.60 27.55 17.52 27.23Q17.44 26.91 17.30 26.51Q17.15 26.11 16.93 25.57L16.93 25.57ZM11.46 11.07L7.71 20.51L15.01 20.51L11.46 11.07ZM49.56 14.66L49.56 21.12Q49.56 23.65 49.06 25.57Q48.57 27.49 47.46 28.77Q46.36 30.05 44.60 30.70Q42.84 31.36 40.34 31.36L40.34 31.36Q37.98 31.36 36.22 30.90Q34.46 30.43 33.27 29.36Q32.09 28.29 31.51 26.56Q30.94 24.83 30.94 22.30L30.94 22.30L30.94 13.86Q30.94 11.49 30.82 10.21Q30.71 8.93 30.17 8.32L30.17 8.32Q29.78 7.90 29.13 7.76Q28.47 7.62 27.38 7.62L27.38 7.62L27.38 6.40L38.30 6.40L38.30 7.62Q37.21 7.62 36.54 7.74Q35.86 7.87 35.48 8.38L35.48 8.38Q35.03 8.96 34.90 10.22Q34.78 11.49 34.78 13.86L34.78 13.86L34.78 22.56Q34.78 24.19 35.11 25.46Q35.45 26.72 36.22 27.60Q36.98 28.48 38.22 28.93Q39.45 29.38 41.24 29.38L41.24 29.38Q44.44 29.38 46.04 27.60Q47.64 25.82 47.64 22.37L47.64 22.37L47.64 14.66Q47.64 11.81 47.42 10.34Q47.19 8.86 46.58 8.26L46.58 8.26Q46.14 7.84 45.46 7.73Q44.79 7.62 43.80 7.62L43.80 7.62L43.80 6.40L53.08 6.40L53.08 7.62Q52.06 7.62 51.40 7.78Q50.74 7.94 50.36 8.48L50.36 8.48Q49.88 9.15 49.72 10.58Q49.56 12 49.56 14.66L49.56 14.66ZM70.74 31.04L58.22 31.04L58.22 29.82Q59.44 29.79 60.19 29.65Q60.94 29.50 61.36 29.10Q61.78 28.70 61.92 28.02Q62.06 27.33 62.06 26.18L62.06 26.18L62.06 11.26Q62.06 10.14 61.95 9.46Q61.84 8.77 61.50 8.37Q61.17 7.97 60.53 7.82Q59.89 7.68 58.86 7.62L58.86 7.62L58.86 6.40L70.10 6.40Q72.98 6.40 75.42 7.36Q77.87 8.32 79.65 10.02Q81.42 11.71 82.42 14.05Q83.41 16.38 83.41 19.14L83.41 19.14Q83.41 21.76 82.48 23.95Q81.55 26.14 79.87 27.71Q78.19 29.28 75.86 30.16Q73.52 31.04 70.74 31.04L70.74 31.04ZM70.03 7.97L65.97 7.97Q65.42 7.97 65.42 8.51L65.42 8.51L65.42 25.82Q65.42 29.47 70.19 29.47L70.19 29.47Q74.58 29.47 76.91 26.86Q79.25 24.26 79.25 19.20L79.25 19.20Q79.25 16.54 78.61 14.46Q77.97 12.38 76.77 10.94Q75.57 9.50 73.87 8.74Q72.18 7.97 70.03 7.97L70.03 7.97ZM108.94 12.58L108.94 12.58Q108.94 15.14 107.40 16.83Q105.86 18.53 102.50 19.10L102.50 19.10L109.58 27.62Q110.44 28.67 111.48 29.14Q112.52 29.60 113.96 29.82L113.96 29.82L113.96 31.04L107.78 31.04L99.94 20.99Q99.53 20.45 99.16 20.13Q98.79 19.81 98.39 19.63Q97.99 19.46 97.46 19.41Q96.94 19.36 96.20 19.36L96.20 19.36L96.20 26.02Q96.20 27.20 96.34 27.95Q96.49 28.70 96.95 29.12Q97.42 29.54 98.30 29.68Q99.18 29.82 100.62 29.82L100.62 29.82L100.62 31.04L89.32 31.04L89.32 29.82Q90.44 29.79 91.13 29.63Q91.82 29.47 92.20 29.09Q92.58 28.70 92.71 28Q92.84 27.30 92.84 26.18L92.84 26.18L92.84 11.26Q92.84 10.14 92.73 9.46Q92.62 8.77 92.28 8.37Q91.94 7.97 91.30 7.82Q90.66 7.68 89.64 7.62L89.64 7.62L89.64 6.40L99.69 6.40Q104.10 6.40 106.52 8.03Q108.94 9.66 108.94 12.58ZM96.20 8.45L96.20 17.76L98.47 17.76Q101.67 17.76 103.22 16.59Q104.78 15.42 104.78 12.74L104.78 12.74Q104.78 10.14 103.54 9.02Q102.31 7.90 99.69 7.90L99.69 7.90L96.74 7.90Q96.20 7.90 96.20 8.45L96.20 8.45ZM124.42 8.32L124.42 17.50Q126.14 17.50 127.31 17.30Q128.48 17.09 129.17 16.64Q129.86 16.19 130.16 15.49Q130.46 14.78 130.46 13.82L130.46 13.82L131.58 13.82L131.58 22.56L130.46 22.56Q130.46 21.60 130.19 20.90Q129.92 20.19 129.23 19.73Q128.54 19.26 127.38 19.02Q126.21 18.78 124.42 18.78L124.42 18.78L124.42 26.02Q124.42 27.07 124.67 27.76Q124.93 28.45 125.55 28.88Q126.18 29.31 127.20 29.49Q128.22 29.66 129.73 29.66L129.73 29.66Q131.42 29.66 132.61 29.42Q133.79 29.18 134.59 28.61Q135.39 28.03 135.87 27.09Q136.35 26.14 136.67 24.74L136.67 24.74L137.89 24.74L137.41 31.04L117.54 31.04L117.54 29.82Q118.66 29.79 119.34 29.63Q120.03 29.47 120.42 29.09Q120.80 28.70 120.93 28Q121.06 27.30 121.06 26.18L121.06 26.18L121.06 11.26Q121.06 10.14 120.94 9.46Q120.83 8.77 120.50 8.37Q120.16 7.97 119.52 7.82Q118.88 7.68 117.86 7.62L117.86 7.62L117.86 6.40L136.35 6.40L136.64 12.03L135.52 12.03Q135.33 10.75 134.90 9.94Q134.46 9.12 133.71 8.64Q132.96 8.16 131.81 7.97Q130.66 7.78 129.02 7.78L129.02 7.78L124.96 7.78Q124.42 7.78 124.42 8.32L124.42 8.32ZM152.38 21.31L145.98 10.37Q145.50 9.54 145.08 9.01Q144.66 8.48 144.23 8.16Q143.80 7.84 143.32 7.73Q142.84 7.62 142.17 7.62L142.17 7.62L142.17 6.40L152.25 6.40L152.25 7.62Q150.65 7.62 149.99 7.86Q149.34 8.10 149.34 8.70L149.34 8.70Q149.34 9.38 150.07 10.62L150.07 10.62L155.03 19.10L155.16 19.10L158.78 13.02Q159.80 11.30 160.23 10.30Q160.66 9.31 160.66 8.70L160.66 8.70Q160.66 8.10 160.20 7.86Q159.74 7.62 158.58 7.62L158.58 7.62L158.58 6.40L165.91 6.40L165.91 7.62Q165.24 7.62 164.71 7.81Q164.18 8 163.61 8.58Q163.03 9.15 162.34 10.18Q161.66 11.20 160.66 12.86L160.66 12.86L155.74 21.18L155.74 24.99Q155.74 26.56 155.85 27.50Q155.96 28.45 156.33 28.96Q156.70 29.47 157.38 29.65Q158.07 29.82 159.22 29.82L159.22 29.82L159.22 31.04L148.86 31.04L148.86 29.82Q150.01 29.82 150.70 29.65Q151.38 29.47 151.75 28.98Q152.12 28.48 152.25 27.58Q152.38 26.69 152.38 25.22L152.38 25.22L152.38 21.31ZM197.19 25.31L197.32 25.31L205.64 6.40L212.81 6.40L212.81 7.62Q211.78 7.65 211.16 7.87Q210.54 8.10 210.20 8.62Q209.86 9.15 209.75 10.08Q209.64 11.01 209.64 12.45L209.64 12.45L209.64 24.99Q209.64 26.59 209.77 27.52Q209.90 28.45 210.26 28.96Q210.63 29.47 211.32 29.63Q212.01 29.79 213.13 29.82L213.13 29.82L213.13 31.04L202.76 31.04L202.76 29.82Q203.88 29.79 204.57 29.62Q205.26 29.44 205.64 28.96Q206.02 28.48 206.15 27.60Q206.28 26.72 206.28 25.22L206.28 25.22L206.28 10.37L205.96 10.37L196.62 31.36L195.91 31.36L186.73 10.37L186.60 10.37L186.60 24.99Q186.60 26.59 186.73 27.52Q186.86 28.45 187.22 28.96Q187.59 29.47 188.28 29.63Q188.97 29.79 190.09 29.82L190.09 29.82L190.09 31.04L181.16 31.04L181.16 29.82Q182.28 29.79 182.97 29.62Q183.66 29.44 184.04 28.96Q184.42 28.48 184.55 27.60Q184.68 26.72 184.68 25.22L184.68 25.22L184.68 12.22Q184.68 10.88 184.57 10Q184.46 9.12 184.12 8.61Q183.78 8.10 183.14 7.89Q182.50 7.68 181.48 7.62L181.48 7.62L181.48 6.40L189.13 6.40L197.19 25.31ZM234.53 25.57L233.22 22.11L224.67 22.11Q224.13 23.42 223.74 24.43Q223.36 25.44 223.12 26.18Q222.88 26.91 222.78 27.42Q222.69 27.94 222.69 28.26L222.69 28.26Q222.69 29.15 223.26 29.49Q223.84 29.82 225.18 29.82L225.18 29.82L225.18 31.04L217.41 31.04L217.41 29.82Q218.14 29.73 218.67 29.57Q219.20 29.41 219.60 29.12Q220 28.83 220.30 28.37Q220.61 27.90 220.90 27.23L220.90 27.23L229.22 6.40L230.59 6.40L237.86 24.45Q238.59 26.24 239.14 27.31Q239.68 28.38 240.19 28.93Q240.70 29.47 241.30 29.63Q241.89 29.79 242.72 29.79L242.72 29.79L242.72 31.04L232.29 31.04L232.29 29.79Q233.98 29.79 234.62 29.47Q235.26 29.15 235.26 28.42L235.26 28.42Q235.26 28.10 235.23 27.82Q235.20 27.55 235.12 27.23Q235.04 26.91 234.90 26.51Q234.75 26.11 234.53 25.57L234.53 25.57ZM229.06 11.07L225.31 20.51L232.61 20.51L229.06 11.07ZM253.62 12.45L253.62 24.99Q253.62 26.59 253.75 27.52Q253.88 28.45 254.25 28.96Q254.62 29.47 255.30 29.63Q255.99 29.79 257.11 29.82L257.11 29.82L257.11 31.04L246.74 31.04L246.74 29.82Q247.86 29.79 248.55 29.62Q249.24 29.44 249.62 28.96Q250.01 28.48 250.14 27.60Q250.26 26.72 250.26 25.22L250.26 25.22L250.26 12.22Q250.26 10.88 250.15 10Q250.04 9.12 249.70 8.61Q249.37 8.10 248.73 7.89Q248.09 7.68 247.06 7.62L247.06 7.62L247.06 6.40L256.79 6.40L256.79 7.62Q255.77 7.65 255.14 7.87Q254.52 8.10 254.18 8.62Q253.85 9.15 253.74 10.08Q253.62 11.01 253.62 12.45L253.62 12.45ZM285.71 31.36L283.79 31.36L268.59 11.33L268.46 11.33L268.46 24.99Q268.46 26.59 268.58 27.52Q268.69 28.45 269.02 28.96Q269.36 29.47 269.98 29.63Q270.61 29.79 271.63 29.82L271.63 29.82L271.63 31.04L263.02 31.04L263.02 29.82Q264.14 29.79 264.83 29.62Q265.52 29.44 265.90 28.96Q266.29 28.48 266.42 27.60Q266.54 26.72 266.54 25.22L266.54 25.22L266.54 12.22Q266.54 10.88 266.43 10Q266.32 9.12 265.98 8.61Q265.65 8.10 265.01 7.89Q264.37 7.68 263.34 7.62L263.34 7.62L263.34 6.40L269.68 6.40L283.66 25.06L283.79 25.06L283.79 12.45Q283.79 10.88 283.68 9.94Q283.57 8.99 283.23 8.48Q282.90 7.97 282.27 7.81Q281.65 7.65 280.62 7.62L280.62 7.62L280.62 6.40L289.23 6.40L289.23 7.62Q288.11 7.65 287.42 7.82Q286.74 8 286.35 8.48Q285.97 8.96 285.84 9.86Q285.71 10.75 285.71 12.22L285.71 12.22L285.71 31.36ZM306.79 31.36L306.79 31.36Q304.07 31.36 301.90 30.50Q299.72 29.63 298.18 28.05Q296.65 26.46 295.83 24.19Q295.02 21.92 295.02 19.14L295.02 19.14Q295.02 16.22 295.91 13.82Q296.81 11.42 298.42 9.70Q300.04 7.97 302.30 7.02Q304.55 6.08 307.27 6.08L307.27 6.08Q309.19 6.08 310.89 6.62Q312.58 7.17 314.57 8.38L314.57 8.38L315.24 6.40L316.36 6.40L315.94 13.76L314.41 13.76Q314.41 12.19 313.82 11.06Q313.22 9.92 312.26 9.18Q311.30 8.45 310.07 8.10Q308.84 7.74 307.56 7.74L307.56 7.74Q305.61 7.74 304.07 8.51Q302.54 9.28 301.48 10.72Q300.42 12.16 299.86 14.24Q299.30 16.32 299.30 18.94L299.30 18.94Q299.30 24.10 301.45 26.86Q303.59 29.63 307.66 29.63L307.66 29.63Q309.19 29.63 310.41 29.26Q311.62 28.90 312.47 28.27Q313.32 27.65 313.75 26.83Q314.18 26.02 314.18 25.12L314.18 25.12Q314.18 23.26 313.43 22.61Q312.68 21.95 310.98 21.95L310.98 21.95L310.98 20.74L320.07 20.74L320.07 21.95Q319.30 21.95 318.79 22.08Q318.28 22.21 317.98 22.54Q317.67 22.88 317.56 23.42Q317.45 23.97 317.45 24.80L317.45 24.80L317.45 28.38Q316.84 28.38 316.34 28.43Q315.85 28.48 315.30 28.66Q314.76 28.83 314.10 29.14Q313.45 29.44 312.55 29.95L312.55 29.95Q311.43 30.59 309.98 30.98Q308.52 31.36 306.79 31.36ZM347.04 14.66L347.04 21.12Q347.04 23.65 346.54 25.57Q346.05 27.49 344.94 28.77Q343.84 30.05 342.08 30.70Q340.32 31.36 337.82 31.36L337.82 31.36Q335.46 31.36 333.70 30.90Q331.94 30.43 330.75 29.36Q329.57 28.29 328.99 26.56Q328.42 24.83 328.42 22.30L328.42 22.30L328.42 13.86Q328.42 11.49 328.30 10.21Q328.19 8.93 327.65 8.32L327.65 8.32Q327.26 7.90 326.61 7.76Q325.95 7.62 324.86 7.62L324.86 7.62L324.86 6.40L335.78 6.40L335.78 7.62Q334.69 7.62 334.02 7.74Q333.34 7.87 332.96 8.38L332.96 8.38Q332.51 8.96 332.38 10.22Q332.26 11.49 332.26 13.86L332.26 13.86L332.26 22.56Q332.26 24.19 332.59 25.46Q332.93 26.72 333.70 27.60Q334.46 28.48 335.70 28.93Q336.93 29.38 338.72 29.38L338.72 29.38Q341.92 29.38 343.52 27.60Q345.12 25.82 345.12 22.37L345.12 22.37L345.12 14.66Q345.12 11.81 344.90 10.34Q344.67 8.86 344.06 8.26L344.06 8.26Q343.62 7.84 342.94 7.73Q342.27 7.62 341.28 7.62L341.28 7.62L341.28 6.40L350.56 6.40L350.56 7.62Q349.54 7.62 348.88 7.78Q348.22 7.94 347.84 8.48L347.84 8.48Q347.36 9.15 347.20 10.58Q347.04 12 347.04 14.66L347.04 14.66ZM364.54 21.31L358.14 10.37Q357.66 9.54 357.24 9.01Q356.82 8.48 356.39 8.16Q355.96 7.84 355.48 7.73Q355 7.62 354.33 7.62L354.33 7.62L354.33 6.40L364.41 6.40L364.41 7.62Q362.81 7.62 362.15 7.86Q361.50 8.10 361.50 8.70L361.50 8.70Q361.50 9.38 362.23 10.62L362.23 10.62L367.19 19.10L367.32 19.10L370.94 13.02Q371.96 11.30 372.39 10.30Q372.82 9.31 372.82 8.70L372.82 8.70Q372.82 8.10 372.36 7.86Q371.90 7.62 370.74 7.62L370.74 7.62L370.74 6.40L378.07 6.40L378.07 7.62Q377.40 7.62 376.87 7.81Q376.34 8 375.77 8.58Q375.19 9.15 374.50 10.18Q373.82 11.20 372.82 12.86L372.82 12.86L367.90 21.18L367.90 24.99Q367.90 26.56 368.01 27.50Q368.12 28.45 368.49 28.96Q368.86 29.47 369.54 29.65Q370.23 29.82 371.38 29.82L371.38 29.82L371.38 31.04L361.02 31.04L361.02 29.82Q362.17 29.82 362.86 29.65Q363.54 29.47 363.91 28.98Q364.28 28.48 364.41 27.58Q364.54 26.69 364.54 25.22L364.54 25.22L364.54 21.31Z" transform="translate(0, 0)"></path></g></svg></svg>